<svg id="Layer_1" data-name="Layer 1" xmlns="http://www.w3.org/2000/svg" width="174.23" height="27.56" viewBox="0 0 174.23 27.56">
  <defs>
    <style>
      .cls-1 {
        fill: #d77e7e;
      }

      .cls-2 {
        fill: none;
        stroke: #c17272;
        stroke-width: 2px;
      }

      .cls-3 {
        font-size: 12.48px;
        fill: #373733;
        font-family: OpenSans-Bold, Open Sans;
        font-weight: 700;
      }

      .cls-4 {
        stroke: #373737;
        stroke-miterlimit: 10;
        stroke-width: 0.5px;
      }

      .cls-5 {
        fill: #373737;
      }
    </style>
  </defs>
  <g id="Rectangle_1" data-name="Rectangle 1">
    <path class="cls-1" d="M173.56,2.22H7.05A2.67,2.67,0,0,0,4.19,4.64V25.36a2.67,2.67,0,0,0,2.86,2.42H173.56a2.67,2.67,0,0,0,2.86-2.42V4.64A2.67,2.67,0,0,0,173.56,2.22Z" transform="translate(-3.19 -1.22)"/>
    <path class="cls-2" d="M173.56,2.22H7.05A2.67,2.67,0,0,0,4.19,4.64V25.36a2.67,2.67,0,0,0,2.86,2.42H173.56a2.67,2.67,0,0,0,2.86-2.42V4.64A2.67,2.67,0,0,0,173.56,2.22Z" transform="translate(-3.19 -1.22)"/>
  </g>
  <text class="cls-3" transform="translate(2.62 18.18)">Coming soon to <tspan class="cls-4" x="99.72" y="0">itch.io</tspan></text>
  <path class="cls-5" d="M153.81,4.93c-1,.59-2.93,2.83-2.95,3.41v1a2.41,2.41,0,0,0,2.2,2.31,2.31,2.31,0,0,0,2.29-2.28,2.28,2.28,0,0,0,2.27,2.28,2.26,2.26,0,0,0,2.23-2.28,2.34,2.34,0,0,0,2.33,2.28h0a2.34,2.34,0,0,0,2.33-2.28,2.25,2.25,0,1,0,4.49,0,2.32,2.32,0,0,0,2.3,2.28,2.41,2.41,0,0,0,2.2-2.31v-1c0-.58-2-2.82-3-3.41-3.08-.1-5.21-.12-8.38-.12s-7.5.05-8.38.12Zm6,6.12a2.42,2.42,0,0,1-.44.57,2.63,2.63,0,0,1-3.68,0,2.56,2.56,0,0,1-.42-.56h0a2.45,2.45,0,0,1-.46.56,2.63,2.63,0,0,1-1.84.75.92.92,0,0,1-.25,0c-.1,1-.14,2-.16,2.78h0v1.1c0,2.2-.22,7.14,1,8.36a45.57,45.57,0,0,0,8.64.62h0a45.57,45.57,0,0,0,8.64-.62c1.19-1.22.95-6.16,1-8.36v-1.1h0c0-.73-.06-1.73-.16-2.78a1.11,1.11,0,0,1-.25,0,2.63,2.63,0,0,1-1.84-.75,2.45,2.45,0,0,1-.46-.56h0a2.56,2.56,0,0,1-.42.56,2.67,2.67,0,0,1-1.85.75,2.62,2.62,0,0,1-1.83-.75,2.46,2.46,0,0,1-.45-.57,2.37,2.37,0,0,1-.43.57,2.65,2.65,0,0,1-1.84.75h-.16a2.65,2.65,0,0,1-1.84-.75,2.71,2.71,0,0,1-.44-.57Zm-1.89,2.45h0a2.52,2.52,0,0,1,2.24.9,16.6,16.6,0,0,1,2-.1h0a16.6,16.6,0,0,1,2,.1,2.52,2.52,0,0,1,2.24-.9h0c.35,0,1.77,0,2.75,2.77l1.06,3.8C171,22.9,170,23,168.71,23a2.91,2.91,0,0,1-3-2.86,23,23,0,0,1-3.54.26h0a23,23,0,0,1-3.54-.26,2.91,2.91,0,0,1-3,2.86c-1.29,0-2.33-.07-1.54-2.9l1.06-3.8c1-2.77,2.4-2.77,2.75-2.77Zm4.25,2.17h0a21.21,21.21,0,0,0-2.38,2.52l1.32-.06v1.16a4,4,0,0,0,1.06,0h0a4,4,0,0,0,1.06,0V18.13l1.32.06a20.44,20.44,0,0,0-2.38-2.52Z" transform="translate(-3.19 -1.22)"/>
</svg>
